<mxfile host="Electron" modified="2023-08-07T03:23:31.546Z" agent="Mozilla/5.0 (Macintosh; Intel Mac OS X 10_15_7) AppleWebKit/537.36 (KHTML, like Gecko) draw.io/21.6.5 Chrome/114.0.5735.243 Electron/25.3.1 Safari/537.36" etag="YJ08yS-rGQ__lW7sA7A2" version="21.6.5" type="device">
  <diagram name="第 1 页" id="y_XC5h7dH25db-2upkFb">
    <mxGraphModel dx="1237" dy="769" grid="1" gridSize="10" guides="1" tooltips="1" connect="1" arrows="1" fold="1" page="1" pageScale="1" pageWidth="3300" pageHeight="4681" math="0" shadow="0">
      <root>
        <mxCell id="0" />
        <mxCell id="1" parent="0" />
        <mxCell id="WbASQEO1y5u5xQXlNqAh-1" value="&lt;code style=&quot;box-sizing: border-box; font-family: var(--monospace); vertical-align: initial; border: 1px solid rgb(231, 234, 237); background-color: rgb(243, 244, 244); border-radius: 3px; padding: 0px 2px; font-size: 15px;&quot;&gt;username&lt;/code&gt;&lt;span style=&quot;box-sizing: border-box; caret-color: rgb(51, 51, 51); color: rgb(51, 51, 51); font-family: &amp;quot;Open Sans&amp;quot;, &amp;quot;Clear Sans&amp;quot;, &amp;quot;Helvetica Neue&amp;quot;, Helvetica, Arial, &amp;quot;Segoe UI Emoji&amp;quot;, sans-serif; font-size: 15px; orphans: 4; text-align: left;&quot; class=&quot;md-plain&quot;&gt;  &lt;/span&gt;&lt;span style=&quot;box-sizing: border-box; caret-color: rgb(51, 51, 51); color: rgb(51, 51, 51); font-family: &amp;quot;Open Sans&amp;quot;, &amp;quot;Clear Sans&amp;quot;, &amp;quot;Helvetica Neue&amp;quot;, Helvetica, Arial, &amp;quot;Segoe UI Emoji&amp;quot;, sans-serif; font-size: 15px; orphans: 4; text-align: left;&quot; class=&quot;md-pair-s&quot; spellcheck=&quot;false&quot;&gt;&lt;code style=&quot;box-sizing: border-box; font-family: var(--monospace); vertical-align: initial; border: 1px solid rgb(231, 234, 237); background-color: rgb(243, 244, 244); border-radius: 3px; padding: 0px 2px; font-size: 15px;&quot;&gt;password&lt;/code&gt;&lt;/span&gt;&lt;span style=&quot;box-sizing: border-box; caret-color: rgb(51, 51, 51); color: rgb(51, 51, 51); font-family: &amp;quot;Open Sans&amp;quot;, &amp;quot;Clear Sans&amp;quot;, &amp;quot;Helvetica Neue&amp;quot;, Helvetica, Arial, &amp;quot;Segoe UI Emoji&amp;quot;, sans-serif; font-size: 15px; orphans: 4; text-align: left;&quot; class=&quot;md-plain&quot;&gt; &lt;/span&gt;&lt;span style=&quot;box-sizing: border-box; caret-color: rgb(51, 51, 51); color: rgb(51, 51, 51); font-family: &amp;quot;Open Sans&amp;quot;, &amp;quot;Clear Sans&amp;quot;, &amp;quot;Helvetica Neue&amp;quot;, Helvetica, Arial, &amp;quot;Segoe UI Emoji&amp;quot;, sans-serif; font-size: 15px; orphans: 4; text-align: left;&quot; class=&quot;md-pair-s&quot; spellcheck=&quot;false&quot;&gt;&lt;code style=&quot;box-sizing: border-box; font-family: var(--monospace); vertical-align: initial; border: 1px solid rgb(231, 234, 237); background-color: rgb(243, 244, 244); border-radius: 3px; padding: 0px 2px; font-size: 15px;&quot;&gt;captchaKey&lt;/code&gt;&lt;/span&gt;&lt;span style=&quot;box-sizing: border-box; caret-color: rgb(51, 51, 51); color: rgb(51, 51, 51); font-family: &amp;quot;Open Sans&amp;quot;, &amp;quot;Clear Sans&amp;quot;, &amp;quot;Helvetica Neue&amp;quot;, Helvetica, Arial, &amp;quot;Segoe UI Emoji&amp;quot;, sans-serif; font-size: 15px; orphans: 4; text-align: left;&quot; class=&quot;md-plain&quot;&gt; &lt;/span&gt;&lt;span style=&quot;box-sizing: border-box; caret-color: rgb(51, 51, 51); color: rgb(51, 51, 51); font-family: &amp;quot;Open Sans&amp;quot;, &amp;quot;Clear Sans&amp;quot;, &amp;quot;Helvetica Neue&amp;quot;, Helvetica, Arial, &amp;quot;Segoe UI Emoji&amp;quot;, sans-serif; font-size: 15px; orphans: 4; text-align: left;&quot; class=&quot;md-pair-s md-expand&quot; spellcheck=&quot;false&quot;&gt;&lt;code style=&quot;box-sizing: border-box; font-family: var(--monospace); vertical-align: initial; border: 1px solid rgb(231, 234, 237); background-color: rgb(243, 244, 244); border-radius: 3px; padding: 0px 2px; font-size: 15px;&quot;&gt;captchaCode&lt;/code&gt;&lt;/span&gt;" style="rounded=1;whiteSpace=wrap;html=1;fontSize=15;" vertex="1" parent="1">
          <mxGeometry x="360" y="120" width="360" height="40" as="geometry" />
        </mxCell>
        <mxCell id="WbASQEO1y5u5xQXlNqAh-20" value="" style="endArrow=classic;html=1;rounded=0;exitX=0.5;exitY=1;exitDx=0;exitDy=0;entryX=0.5;entryY=0;entryDx=0;entryDy=0;" edge="1" parent="1" source="WbASQEO1y5u5xQXlNqAh-1" target="WbASQEO1y5u5xQXlNqAh-22">
          <mxGeometry relative="1" as="geometry">
            <mxPoint x="580" y="440" as="sourcePoint" />
            <mxPoint x="550" y="240" as="targetPoint" />
          </mxGeometry>
        </mxCell>
        <mxCell id="WbASQEO1y5u5xQXlNqAh-21" value="" style="shape=message;html=1;outlineConnect=0;" vertex="1" parent="WbASQEO1y5u5xQXlNqAh-20">
          <mxGeometry width="20" height="14" relative="1" as="geometry">
            <mxPoint x="-10" y="-7" as="offset" />
          </mxGeometry>
        </mxCell>
        <mxCell id="WbASQEO1y5u5xQXlNqAh-22" value="&lt;font style=&quot;font-size: 15px;&quot;&gt;判断&lt;/font&gt;&lt;span style=&quot;box-sizing: border-box; caret-color: rgb(51, 51, 51); color: rgb(51, 51, 51); font-family: &amp;quot;Open Sans&amp;quot;, &amp;quot;Clear Sans&amp;quot;, &amp;quot;Helvetica Neue&amp;quot;, Helvetica, Arial, &amp;quot;Segoe UI Emoji&amp;quot;, sans-serif; font-size: 16px; orphans: 4; text-align: left;&quot; class=&quot;md-pair-s&quot; spellcheck=&quot;false&quot;&gt;&lt;code style=&quot;box-sizing: border-box; font-family: var(--monospace); vertical-align: initial; border: 1px solid rgb(231, 234, 237); background-color: rgb(243, 244, 244); border-radius: 3px; padding: 0px 2px; font-size: 0.9em;&quot;&gt;captchaCode&lt;/code&gt;&lt;/span&gt;&lt;span style=&quot;box-sizing: border-box; caret-color: rgb(51, 51, 51); color: rgb(51, 51, 51); font-family: &amp;quot;Open Sans&amp;quot;, &amp;quot;Clear Sans&amp;quot;, &amp;quot;Helvetica Neue&amp;quot;, Helvetica, Arial, &amp;quot;Segoe UI Emoji&amp;quot;, sans-serif; font-size: 16px; orphans: 4; text-align: left;&quot; class=&quot;md-plain md-expand&quot;&gt;是否为空&lt;/span&gt;" style="rounded=1;whiteSpace=wrap;html=1;" vertex="1" parent="1">
          <mxGeometry x="440" y="200" width="200" height="40" as="geometry" />
        </mxCell>
        <mxCell id="WbASQEO1y5u5xQXlNqAh-24" value="&lt;span style=&quot;font-size: 15px;&quot;&gt;响应：验证码为空&lt;/span&gt;" style="rounded=1;whiteSpace=wrap;html=1;fillColor=#f8cecc;strokeColor=#b85450;" vertex="1" parent="1">
          <mxGeometry x="720" y="200" width="160" height="40" as="geometry" />
        </mxCell>
        <mxCell id="WbASQEO1y5u5xQXlNqAh-25" value="" style="endArrow=classic;html=1;rounded=0;exitX=1;exitY=0.5;exitDx=0;exitDy=0;entryX=0;entryY=0.5;entryDx=0;entryDy=0;" edge="1" parent="1" source="WbASQEO1y5u5xQXlNqAh-22" target="WbASQEO1y5u5xQXlNqAh-24">
          <mxGeometry relative="1" as="geometry">
            <mxPoint x="580" y="440" as="sourcePoint" />
            <mxPoint x="680" y="440" as="targetPoint" />
          </mxGeometry>
        </mxCell>
        <mxCell id="WbASQEO1y5u5xQXlNqAh-26" value="空" style="edgeLabel;resizable=0;html=1;align=center;verticalAlign=middle;fontSize=13;" connectable="0" vertex="1" parent="WbASQEO1y5u5xQXlNqAh-25">
          <mxGeometry relative="1" as="geometry" />
        </mxCell>
        <mxCell id="WbASQEO1y5u5xQXlNqAh-27" value="" style="endArrow=classic;html=1;rounded=0;exitX=0.5;exitY=1;exitDx=0;exitDy=0;" edge="1" parent="1" source="WbASQEO1y5u5xQXlNqAh-22">
          <mxGeometry relative="1" as="geometry">
            <mxPoint x="500" y="310" as="sourcePoint" />
            <mxPoint x="540" y="280" as="targetPoint" />
          </mxGeometry>
        </mxCell>
        <mxCell id="WbASQEO1y5u5xQXlNqAh-28" value="非空" style="edgeLabel;resizable=0;html=1;align=center;verticalAlign=middle;fontSize=13;" connectable="0" vertex="1" parent="WbASQEO1y5u5xQXlNqAh-27">
          <mxGeometry relative="1" as="geometry" />
        </mxCell>
        <mxCell id="WbASQEO1y5u5xQXlNqAh-29" value="&lt;font style=&quot;font-size: 15px;&quot;&gt;根据&lt;/font&gt;&lt;span style=&quot;box-sizing: border-box; caret-color: rgb(51, 51, 51); color: rgb(51, 51, 51); font-family: &amp;quot;Open Sans&amp;quot;, &amp;quot;Clear Sans&amp;quot;, &amp;quot;Helvetica Neue&amp;quot;, Helvetica, Arial, &amp;quot;Segoe UI Emoji&amp;quot;, sans-serif; font-size: 15px; orphans: 4; text-align: left;&quot; class=&quot;md-pair-s&quot; spellcheck=&quot;false&quot;&gt;&lt;code style=&quot;box-sizing: border-box; font-family: var(--monospace); vertical-align: initial; border: 1px solid rgb(231, 234, 237); background-color: rgb(243, 244, 244); border-radius: 3px; padding: 0px 2px; font-size: 15px;&quot;&gt;captchaKey&lt;/code&gt;&lt;/span&gt;&lt;span style=&quot;box-sizing: border-box; caret-color: rgb(51, 51, 51); color: rgb(51, 51, 51); font-family: &amp;quot;Open Sans&amp;quot;, &amp;quot;Clear Sans&amp;quot;, &amp;quot;Helvetica Neue&amp;quot;, Helvetica, Arial, &amp;quot;Segoe UI Emoji&amp;quot;, sans-serif; font-size: 15px; orphans: 4; text-align: left;&quot; class=&quot;md-plain&quot;&gt;从Redis中查询之前保存的&lt;/span&gt;&lt;span style=&quot;box-sizing: border-box; caret-color: rgb(51, 51, 51); color: rgb(51, 51, 51); font-family: &amp;quot;Open Sans&amp;quot;, &amp;quot;Clear Sans&amp;quot;, &amp;quot;Helvetica Neue&amp;quot;, Helvetica, Arial, &amp;quot;Segoe UI Emoji&amp;quot;, sans-serif; font-size: 15px; orphans: 4; text-align: left;&quot; class=&quot;md-pair-s&quot; spellcheck=&quot;false&quot;&gt;&lt;code style=&quot;box-sizing: border-box; font-family: var(--monospace); vertical-align: initial; border: 1px solid rgb(231, 234, 237); background-color: rgb(243, 244, 244); border-radius: 3px; padding: 0px 2px; font-size: 15px;&quot;&gt;code&lt;/code&gt;&lt;/span&gt;" style="rounded=1;whiteSpace=wrap;html=1;fontSize=15;" vertex="1" parent="1">
          <mxGeometry x="360" y="280" width="360" height="40" as="geometry" />
        </mxCell>
        <mxCell id="WbASQEO1y5u5xQXlNqAh-32" value="Redis" style="rounded=1;whiteSpace=wrap;html=1;fontSize=15;" vertex="1" parent="1">
          <mxGeometry x="160" y="280" width="80" height="40" as="geometry" />
        </mxCell>
        <mxCell id="WbASQEO1y5u5xQXlNqAh-33" value="" style="endArrow=classic;html=1;rounded=0;exitX=0;exitY=0.5;exitDx=0;exitDy=0;entryX=1;entryY=0.5;entryDx=0;entryDy=0;" edge="1" parent="1" source="WbASQEO1y5u5xQXlNqAh-29" target="WbASQEO1y5u5xQXlNqAh-32">
          <mxGeometry relative="1" as="geometry">
            <mxPoint x="650" y="230" as="sourcePoint" />
            <mxPoint x="730" y="230" as="targetPoint" />
          </mxGeometry>
        </mxCell>
        <mxCell id="WbASQEO1y5u5xQXlNqAh-34" value="captchaKey" style="edgeLabel;resizable=0;html=1;align=center;verticalAlign=middle;fontSize=13;" connectable="0" vertex="1" parent="WbASQEO1y5u5xQXlNqAh-33">
          <mxGeometry relative="1" as="geometry" />
        </mxCell>
        <mxCell id="WbASQEO1y5u5xQXlNqAh-35" value="&lt;font style=&quot;font-size: 15px;&quot;&gt;根据&lt;/font&gt;&lt;span style=&quot;box-sizing: border-box; caret-color: rgb(51, 51, 51); color: rgb(51, 51, 51); font-family: &amp;quot;Open Sans&amp;quot;, &amp;quot;Clear Sans&amp;quot;, &amp;quot;Helvetica Neue&amp;quot;, Helvetica, Arial, &amp;quot;Segoe UI Emoji&amp;quot;, sans-serif; font-size: 15px; orphans: 4; text-align: left;&quot; class=&quot;md-pair-s&quot; spellcheck=&quot;false&quot;&gt;&lt;code style=&quot;box-sizing: border-box; font-family: var(--monospace); vertical-align: initial; border: 1px solid rgb(231, 234, 237); background-color: rgb(243, 244, 244); border-radius: 3px; padding: 0px 2px; font-size: 15px;&quot;&gt;captchaKey&lt;/code&gt;&lt;/span&gt;&lt;span style=&quot;box-sizing: border-box; caret-color: rgb(51, 51, 51); color: rgb(51, 51, 51); font-family: &amp;quot;Open Sans&amp;quot;, &amp;quot;Clear Sans&amp;quot;, &amp;quot;Helvetica Neue&amp;quot;, Helvetica, Arial, &amp;quot;Segoe UI Emoji&amp;quot;, sans-serif; font-size: 15px; orphans: 4; text-align: left;&quot; class=&quot;md-plain&quot;&gt;从Redis中查询之前保存的&lt;/span&gt;&lt;span style=&quot;box-sizing: border-box; caret-color: rgb(51, 51, 51); color: rgb(51, 51, 51); font-family: &amp;quot;Open Sans&amp;quot;, &amp;quot;Clear Sans&amp;quot;, &amp;quot;Helvetica Neue&amp;quot;, Helvetica, Arial, &amp;quot;Segoe UI Emoji&amp;quot;, sans-serif; font-size: 15px; orphans: 4; text-align: left;&quot; class=&quot;md-pair-s&quot; spellcheck=&quot;false&quot;&gt;&lt;code style=&quot;box-sizing: border-box; font-family: var(--monospace); vertical-align: initial; border: 1px solid rgb(231, 234, 237); background-color: rgb(243, 244, 244); border-radius: 3px; padding: 0px 2px; font-size: 15px;&quot;&gt;code&lt;/code&gt;&lt;/span&gt;" style="rounded=1;whiteSpace=wrap;html=1;fontSize=15;" vertex="1" parent="1">
          <mxGeometry x="360" y="360" width="360" height="40" as="geometry" />
        </mxCell>
        <mxCell id="WbASQEO1y5u5xQXlNqAh-37" value="" style="endArrow=classic;html=1;rounded=0;exitX=1;exitY=0.5;exitDx=0;exitDy=0;entryX=0;entryY=0.5;entryDx=0;entryDy=0;" edge="1" parent="1" source="WbASQEO1y5u5xQXlNqAh-32" target="WbASQEO1y5u5xQXlNqAh-35">
          <mxGeometry relative="1" as="geometry">
            <mxPoint x="370" y="310" as="sourcePoint" />
            <mxPoint x="250" y="310" as="targetPoint" />
          </mxGeometry>
        </mxCell>
        <mxCell id="WbASQEO1y5u5xQXlNqAh-38" value="code" style="edgeLabel;resizable=0;html=1;align=center;verticalAlign=middle;fontSize=13;" connectable="0" vertex="1" parent="WbASQEO1y5u5xQXlNqAh-37">
          <mxGeometry relative="1" as="geometry" />
        </mxCell>
      </root>
    </mxGraphModel>
  </diagram>
</mxfile>
